<mxfile host="Electron" modified="2024-03-29T09:00:49.818Z" agent="Mozilla/5.0 (Windows NT 10.0; Win64; x64) AppleWebKit/537.36 (KHTML, like Gecko) draw.io/24.1.0 Chrome/120.0.6099.109 Electron/28.1.0 Safari/537.36" etag="yYgRx3txBFJCT4BTt-j3" version="24.1.0" type="device">
  <diagram name="Page-1" id="sk3gzw_GWDRiFdrcxnEu">
    <mxGraphModel dx="1518" dy="1940" grid="0" gridSize="10" guides="1" tooltips="1" connect="1" arrows="1" fold="1" page="0" pageScale="1" pageWidth="850" pageHeight="1100" math="0" shadow="0">
      <root>
        <mxCell id="0" />
        <mxCell id="1" parent="0" />
        <mxCell id="fG_n8Bt0mhn_Rfi7QYOH-1" value="&lt;font style=&quot;font-size: 20px;&quot;&gt;Chiến đâu&lt;/font&gt;" style="ellipse;whiteSpace=wrap;html=1;" parent="1" vertex="1">
          <mxGeometry x="375" y="-751" width="120" height="80" as="geometry" />
        </mxCell>
        <mxCell id="fG_n8Bt0mhn_Rfi7QYOH-2" value="Điều chỉnh sound" style="ellipse;whiteSpace=wrap;html=1;" parent="1" vertex="1">
          <mxGeometry x="617" y="804" width="120" height="80" as="geometry" />
        </mxCell>
        <mxCell id="fG_n8Bt0mhn_Rfi7QYOH-3" value="&lt;font style=&quot;font-size: 20px;&quot;&gt;Chọn màn chơi&lt;/font&gt;" style="ellipse;whiteSpace=wrap;html=1;" parent="1" vertex="1">
          <mxGeometry x="615" y="-666" width="120" height="80" as="geometry" />
        </mxCell>
        <mxCell id="fG_n8Bt0mhn_Rfi7QYOH-6" value="&lt;font style=&quot;font-size: 20px;&quot;&gt;Tạm dừng game&lt;/font&gt;" style="ellipse;whiteSpace=wrap;html=1;" parent="1" vertex="1">
          <mxGeometry x="480" y="-908" width="120" height="80" as="geometry" />
        </mxCell>
        <mxCell id="fG_n8Bt0mhn_Rfi7QYOH-7" value="&lt;font style=&quot;font-size: 20px;&quot;&gt;Tiếp tục game&lt;/font&gt;" style="ellipse;whiteSpace=wrap;html=1;" parent="1" vertex="1">
          <mxGeometry x="678" y="-949" width="120" height="80" as="geometry" />
        </mxCell>
        <mxCell id="fG_n8Bt0mhn_Rfi7QYOH-8" value="&lt;font style=&quot;font-size: 20px;&quot;&gt;X2 Speed&lt;/font&gt;" style="ellipse;whiteSpace=wrap;html=1;" parent="1" vertex="1">
          <mxGeometry x="640" y="-814" width="120" height="80" as="geometry" />
        </mxCell>
        <mxCell id="fG_n8Bt0mhn_Rfi7QYOH-9" value="Cài đặt game" style="ellipse;whiteSpace=wrap;html=1;" parent="1" vertex="1">
          <mxGeometry x="417" y="1064" width="120" height="80" as="geometry" />
        </mxCell>
        <mxCell id="fG_n8Bt0mhn_Rfi7QYOH-10" value="Điều chỉnh music" style="ellipse;whiteSpace=wrap;html=1;" parent="1" vertex="1">
          <mxGeometry x="617" y="914" width="120" height="80" as="geometry" />
        </mxCell>
        <mxCell id="fG_n8Bt0mhn_Rfi7QYOH-11" value="Điều chỉnh ngôn ngữ" style="ellipse;whiteSpace=wrap;html=1;" parent="1" vertex="1">
          <mxGeometry x="627" y="1014" width="120" height="80" as="geometry" />
        </mxCell>
        <mxCell id="fG_n8Bt0mhn_Rfi7QYOH-12" value="Xem chính sách" style="ellipse;whiteSpace=wrap;html=1;" parent="1" vertex="1">
          <mxGeometry x="627" y="1104" width="120" height="80" as="geometry" />
        </mxCell>
        <mxCell id="fG_n8Bt0mhn_Rfi7QYOH-15" value="Xem credit" style="ellipse;whiteSpace=wrap;html=1;" parent="1" vertex="1">
          <mxGeometry x="627" y="1204" width="120" height="80" as="geometry" />
        </mxCell>
        <mxCell id="fG_n8Bt0mhn_Rfi7QYOH-16" value="Đánh giá game" style="ellipse;whiteSpace=wrap;html=1;" parent="1" vertex="1">
          <mxGeometry x="627" y="1294" width="120" height="80" as="geometry" />
        </mxCell>
        <mxCell id="fG_n8Bt0mhn_Rfi7QYOH-18" value="" style="endArrow=none;html=1;rounded=0;exitX=1;exitY=0.5;exitDx=0;exitDy=0;entryX=0;entryY=0.5;entryDx=0;entryDy=0;" parent="1" source="fG_n8Bt0mhn_Rfi7QYOH-9" target="fG_n8Bt0mhn_Rfi7QYOH-2" edge="1">
          <mxGeometry width="50" height="50" relative="1" as="geometry">
            <mxPoint x="747" y="1084" as="sourcePoint" />
            <mxPoint x="797" y="1034" as="targetPoint" />
          </mxGeometry>
        </mxCell>
        <mxCell id="fG_n8Bt0mhn_Rfi7QYOH-19" value="" style="endArrow=none;html=1;rounded=0;exitX=1;exitY=0.5;exitDx=0;exitDy=0;entryX=0;entryY=0.5;entryDx=0;entryDy=0;" parent="1" source="fG_n8Bt0mhn_Rfi7QYOH-9" target="fG_n8Bt0mhn_Rfi7QYOH-10" edge="1">
          <mxGeometry width="50" height="50" relative="1" as="geometry">
            <mxPoint x="547" y="1114" as="sourcePoint" />
            <mxPoint x="627" y="854" as="targetPoint" />
          </mxGeometry>
        </mxCell>
        <mxCell id="fG_n8Bt0mhn_Rfi7QYOH-20" value="" style="endArrow=none;html=1;rounded=0;exitX=1;exitY=0.5;exitDx=0;exitDy=0;entryX=0;entryY=0.5;entryDx=0;entryDy=0;" parent="1" source="fG_n8Bt0mhn_Rfi7QYOH-9" target="fG_n8Bt0mhn_Rfi7QYOH-11" edge="1">
          <mxGeometry width="50" height="50" relative="1" as="geometry">
            <mxPoint x="557" y="1124" as="sourcePoint" />
            <mxPoint x="627" y="964" as="targetPoint" />
          </mxGeometry>
        </mxCell>
        <mxCell id="fG_n8Bt0mhn_Rfi7QYOH-21" value="" style="endArrow=none;html=1;rounded=0;exitX=1;exitY=0.5;exitDx=0;exitDy=0;entryX=0;entryY=0.5;entryDx=0;entryDy=0;" parent="1" source="fG_n8Bt0mhn_Rfi7QYOH-9" target="fG_n8Bt0mhn_Rfi7QYOH-12" edge="1">
          <mxGeometry width="50" height="50" relative="1" as="geometry">
            <mxPoint x="567" y="1134" as="sourcePoint" />
            <mxPoint x="637" y="1064" as="targetPoint" />
          </mxGeometry>
        </mxCell>
        <mxCell id="fG_n8Bt0mhn_Rfi7QYOH-22" value="" style="endArrow=none;html=1;rounded=0;entryX=0;entryY=0.5;entryDx=0;entryDy=0;exitX=1;exitY=0.5;exitDx=0;exitDy=0;" parent="1" source="fG_n8Bt0mhn_Rfi7QYOH-9" target="fG_n8Bt0mhn_Rfi7QYOH-15" edge="1">
          <mxGeometry width="50" height="50" relative="1" as="geometry">
            <mxPoint x="537" y="1114" as="sourcePoint" />
            <mxPoint x="637" y="1154" as="targetPoint" />
          </mxGeometry>
        </mxCell>
        <mxCell id="fG_n8Bt0mhn_Rfi7QYOH-23" value="" style="endArrow=none;html=1;rounded=0;exitX=1;exitY=0.5;exitDx=0;exitDy=0;entryX=0;entryY=0.5;entryDx=0;entryDy=0;" parent="1" source="fG_n8Bt0mhn_Rfi7QYOH-9" target="fG_n8Bt0mhn_Rfi7QYOH-16" edge="1">
          <mxGeometry width="50" height="50" relative="1" as="geometry">
            <mxPoint x="587" y="1154" as="sourcePoint" />
            <mxPoint x="637" y="1254" as="targetPoint" />
          </mxGeometry>
        </mxCell>
        <mxCell id="scgQ76pB7DkAtTEcPjEE-1" value="Player" style="shape=umlActor;verticalLabelPosition=bottom;verticalAlign=top;html=1;outlineConnect=0;" parent="1" vertex="1">
          <mxGeometry x="328" y="-93" width="30" height="60" as="geometry" />
        </mxCell>
        <mxCell id="scgQ76pB7DkAtTEcPjEE-2" value="Chọn màn chơi" style="ellipse;whiteSpace=wrap;html=1;" parent="1" vertex="1">
          <mxGeometry x="539" y="-272" width="120" height="80" as="geometry" />
        </mxCell>
        <mxCell id="scgQ76pB7DkAtTEcPjEE-3" value="Xây tháp" style="ellipse;whiteSpace=wrap;html=1;" parent="1" vertex="1">
          <mxGeometry x="535" y="-131" width="120" height="80" as="geometry" />
        </mxCell>
        <mxCell id="scgQ76pB7DkAtTEcPjEE-4" value="Bán tháp" style="ellipse;whiteSpace=wrap;html=1;" parent="1" vertex="1">
          <mxGeometry x="808" y="-158" width="120" height="80" as="geometry" />
        </mxCell>
        <mxCell id="scgQ76pB7DkAtTEcPjEE-5" value="Nâng cấp tháp" style="ellipse;whiteSpace=wrap;html=1;" parent="1" vertex="1">
          <mxGeometry x="798" y="-56" width="120" height="80" as="geometry" />
        </mxCell>
        <mxCell id="scgQ76pB7DkAtTEcPjEE-6" value="Phá huỷ vật cản" style="ellipse;whiteSpace=wrap;html=1;" parent="1" vertex="1">
          <mxGeometry x="543" y="-38" width="120" height="80" as="geometry" />
        </mxCell>
        <mxCell id="scgQ76pB7DkAtTEcPjEE-8" value="" style="endArrow=none;html=1;rounded=0;entryX=0;entryY=0.5;entryDx=0;entryDy=0;" parent="1" target="scgQ76pB7DkAtTEcPjEE-2" edge="1">
          <mxGeometry width="50" height="50" relative="1" as="geometry">
            <mxPoint x="358" y="-73" as="sourcePoint" />
            <mxPoint x="408" y="-123" as="targetPoint" />
          </mxGeometry>
        </mxCell>
        <mxCell id="scgQ76pB7DkAtTEcPjEE-9" value="" style="endArrow=none;html=1;rounded=0;entryX=0;entryY=0.5;entryDx=0;entryDy=0;" parent="1" target="scgQ76pB7DkAtTEcPjEE-3" edge="1">
          <mxGeometry width="50" height="50" relative="1" as="geometry">
            <mxPoint x="358" y="-73" as="sourcePoint" />
            <mxPoint x="478" y="-153" as="targetPoint" />
          </mxGeometry>
        </mxCell>
        <mxCell id="scgQ76pB7DkAtTEcPjEE-12" value="" style="endArrow=none;html=1;rounded=0;entryX=0;entryY=0.5;entryDx=0;entryDy=0;exitX=1;exitY=0.3333333333333333;exitDx=0;exitDy=0;exitPerimeter=0;" parent="1" source="scgQ76pB7DkAtTEcPjEE-1" target="scgQ76pB7DkAtTEcPjEE-6" edge="1">
          <mxGeometry width="50" height="50" relative="1" as="geometry">
            <mxPoint x="368" y="-63" as="sourcePoint" />
            <mxPoint x="478" y="127" as="targetPoint" />
          </mxGeometry>
        </mxCell>
        <mxCell id="scgQ76pB7DkAtTEcPjEE-17" value="&lt;font style=&quot;font-size: 14px;&quot;&gt;&amp;lt;include&amp;gt;&lt;/font&gt;" style="html=1;verticalAlign=bottom;endArrow=open;dashed=1;endSize=8;curved=0;rounded=0;entryX=0.5;entryY=1;entryDx=0;entryDy=0;exitX=0.5;exitY=0;exitDx=0;exitDy=0;" parent="1" source="scgQ76pB7DkAtTEcPjEE-3" target="scgQ76pB7DkAtTEcPjEE-2" edge="1">
          <mxGeometry relative="1" as="geometry">
            <mxPoint x="836" y="-138" as="sourcePoint" />
            <mxPoint x="838" y="-223" as="targetPoint" />
          </mxGeometry>
        </mxCell>
        <mxCell id="scgQ76pB7DkAtTEcPjEE-22" value="Đặt hỗ trợ" style="ellipse;whiteSpace=wrap;html=1;" parent="1" vertex="1">
          <mxGeometry x="543" y="60" width="120" height="80" as="geometry" />
        </mxCell>
        <mxCell id="scgQ76pB7DkAtTEcPjEE-24" value="" style="endArrow=none;html=1;rounded=0;entryX=0;entryY=0.5;entryDx=0;entryDy=0;" parent="1" target="scgQ76pB7DkAtTEcPjEE-22" edge="1">
          <mxGeometry width="50" height="50" relative="1" as="geometry">
            <mxPoint x="358" y="-73" as="sourcePoint" />
            <mxPoint x="848" y="-253" as="targetPoint" />
          </mxGeometry>
        </mxCell>
        <mxCell id="scgQ76pB7DkAtTEcPjEE-31" value="&lt;font style=&quot;font-size: 20px;&quot;&gt;Vào kho chứa tháp&lt;/font&gt;" style="ellipse;whiteSpace=wrap;html=1;" parent="1" vertex="1">
          <mxGeometry x="381" y="-626" width="120" height="80" as="geometry" />
        </mxCell>
        <mxCell id="scgQ76pB7DkAtTEcPjEE-40" value="&lt;font style=&quot;font-size: 20px;&quot;&gt;Vào cửa hàng&lt;/font&gt;" style="ellipse;whiteSpace=wrap;html=1;" parent="1" vertex="1">
          <mxGeometry x="384" y="-499" width="120" height="80" as="geometry" />
        </mxCell>
        <mxCell id="scgQ76pB7DkAtTEcPjEE-49" value="&lt;font style=&quot;font-size: 14px;&quot;&gt;&amp;lt;include&amp;gt;&lt;/font&gt;" style="html=1;verticalAlign=bottom;endArrow=open;dashed=1;endSize=8;curved=0;rounded=0;entryX=0;entryY=0.5;entryDx=0;entryDy=0;exitX=1;exitY=0.5;exitDx=0;exitDy=0;" parent="1" source="fG_n8Bt0mhn_Rfi7QYOH-1" target="fG_n8Bt0mhn_Rfi7QYOH-3" edge="1">
          <mxGeometry relative="1" as="geometry">
            <mxPoint x="366" y="-506" as="sourcePoint" />
            <mxPoint x="286" y="-506" as="targetPoint" />
          </mxGeometry>
        </mxCell>
        <mxCell id="scgQ76pB7DkAtTEcPjEE-50" value="&lt;font style=&quot;font-size: 14px;&quot;&gt;&amp;lt;extend&amp;gt;&lt;/font&gt;" style="html=1;verticalAlign=bottom;endArrow=open;dashed=1;endSize=8;curved=0;rounded=0;entryX=1;entryY=0.5;entryDx=0;entryDy=0;exitX=0;exitY=0.5;exitDx=0;exitDy=0;" parent="1" source="fG_n8Bt0mhn_Rfi7QYOH-8" target="fG_n8Bt0mhn_Rfi7QYOH-1" edge="1">
          <mxGeometry relative="1" as="geometry">
            <mxPoint x="536" y="-836" as="sourcePoint" />
            <mxPoint x="536" y="-776" as="targetPoint" />
          </mxGeometry>
        </mxCell>
        <mxCell id="scgQ76pB7DkAtTEcPjEE-51" value="&amp;lt;include&amp;gt;" style="html=1;verticalAlign=bottom;endArrow=open;dashed=1;endSize=8;curved=0;rounded=0;exitX=0;exitY=0.5;exitDx=0;exitDy=0;entryX=1;entryY=0.5;entryDx=0;entryDy=0;" parent="1" source="fG_n8Bt0mhn_Rfi7QYOH-7" target="fG_n8Bt0mhn_Rfi7QYOH-6" edge="1">
          <mxGeometry relative="1" as="geometry">
            <mxPoint x="556" y="-776" as="sourcePoint" />
            <mxPoint x="546" y="-856" as="targetPoint" />
          </mxGeometry>
        </mxCell>
        <mxCell id="scgQ76pB7DkAtTEcPjEE-52" value="&lt;font style=&quot;font-size: 14px;&quot;&gt;&amp;lt;extend&amp;gt;&lt;/font&gt;" style="html=1;verticalAlign=bottom;endArrow=open;dashed=1;endSize=8;curved=0;rounded=0;exitX=0;exitY=1;exitDx=0;exitDy=0;entryX=0.981;entryY=0.303;entryDx=0;entryDy=0;entryPerimeter=0;" parent="1" source="fG_n8Bt0mhn_Rfi7QYOH-6" edge="1" target="fG_n8Bt0mhn_Rfi7QYOH-1">
          <mxGeometry relative="1" as="geometry">
            <mxPoint x="586" y="-886" as="sourcePoint" />
            <mxPoint x="396" y="-756" as="targetPoint" />
          </mxGeometry>
        </mxCell>
        <mxCell id="3wtLkdwfDZyS0cWqgy5X-1" value="&lt;font face=&quot;Helvetica&quot; style=&quot;font-size: 20px;&quot;&gt;Setting&lt;/font&gt;" style="ellipse;whiteSpace=wrap;html=1;" parent="1" vertex="1">
          <mxGeometry x="332" y="-922" width="120" height="80" as="geometry" />
        </mxCell>
        <mxCell id="3wtLkdwfDZyS0cWqgy5X-2" value="&lt;font style=&quot;font-size: 14px;&quot;&gt;&amp;lt;extend&amp;gt;&lt;/font&gt;" style="html=1;verticalAlign=bottom;endArrow=open;dashed=1;endSize=8;curved=0;rounded=0;exitX=0;exitY=1;exitDx=0;exitDy=0;entryX=0.5;entryY=0;entryDx=0;entryDy=0;" parent="1" source="3wtLkdwfDZyS0cWqgy5X-1" target="fG_n8Bt0mhn_Rfi7QYOH-1" edge="1">
          <mxGeometry relative="1" as="geometry">
            <mxPoint x="454" y="-868" as="sourcePoint" />
            <mxPoint x="406" y="-746" as="targetPoint" />
          </mxGeometry>
        </mxCell>
        <mxCell id="9fqEiez74HAiHmVb1B91-3" value="" style="endArrow=none;html=1;rounded=0;" edge="1" parent="1">
          <mxGeometry width="50" height="50" relative="1" as="geometry">
            <mxPoint x="298" y="-975" as="sourcePoint" />
            <mxPoint x="840" y="-972" as="targetPoint" />
          </mxGeometry>
        </mxCell>
        <mxCell id="9fqEiez74HAiHmVb1B91-4" value="" style="endArrow=none;html=1;rounded=0;" edge="1" parent="1">
          <mxGeometry width="50" height="50" relative="1" as="geometry">
            <mxPoint x="312" y="-396" as="sourcePoint" />
            <mxPoint x="828" y="-392" as="targetPoint" />
          </mxGeometry>
        </mxCell>
        <mxCell id="9fqEiez74HAiHmVb1B91-5" value="" style="endArrow=none;html=1;rounded=0;" edge="1" parent="1">
          <mxGeometry width="50" height="50" relative="1" as="geometry">
            <mxPoint x="300" y="-394" as="sourcePoint" />
            <mxPoint x="300" y="-968" as="targetPoint" />
          </mxGeometry>
        </mxCell>
        <mxCell id="9fqEiez74HAiHmVb1B91-6" value="" style="endArrow=none;html=1;rounded=0;" edge="1" parent="1">
          <mxGeometry width="50" height="50" relative="1" as="geometry">
            <mxPoint x="831" y="-393" as="sourcePoint" />
            <mxPoint x="835" y="-982" as="targetPoint" />
          </mxGeometry>
        </mxCell>
        <mxCell id="9fqEiez74HAiHmVb1B91-7" value="Actor" style="shape=umlActor;verticalLabelPosition=bottom;verticalAlign=top;html=1;outlineConnect=0;" vertex="1" parent="1">
          <mxGeometry x="130" y="-700" width="30" height="60" as="geometry" />
        </mxCell>
        <mxCell id="9fqEiez74HAiHmVb1B91-8" value="" style="endArrow=none;html=1;rounded=0;entryX=0;entryY=0.5;entryDx=0;entryDy=0;" edge="1" parent="1" target="scgQ76pB7DkAtTEcPjEE-31">
          <mxGeometry width="50" height="50" relative="1" as="geometry">
            <mxPoint x="170" y="-670" as="sourcePoint" />
            <mxPoint x="660" y="-610" as="targetPoint" />
          </mxGeometry>
        </mxCell>
        <mxCell id="9fqEiez74HAiHmVb1B91-10" value="" style="endArrow=none;html=1;rounded=0;entryX=0;entryY=0.5;entryDx=0;entryDy=0;" edge="1" parent="1" target="fG_n8Bt0mhn_Rfi7QYOH-1">
          <mxGeometry width="50" height="50" relative="1" as="geometry">
            <mxPoint x="170" y="-680" as="sourcePoint" />
            <mxPoint x="660" y="-610" as="targetPoint" />
          </mxGeometry>
        </mxCell>
        <mxCell id="9fqEiez74HAiHmVb1B91-11" value="" style="endArrow=none;html=1;rounded=0;entryX=0;entryY=0.5;entryDx=0;entryDy=0;" edge="1" parent="1" target="scgQ76pB7DkAtTEcPjEE-40">
          <mxGeometry width="50" height="50" relative="1" as="geometry">
            <mxPoint x="170" y="-650" as="sourcePoint" />
            <mxPoint x="410" y="-580" as="targetPoint" />
          </mxGeometry>
        </mxCell>
        <mxCell id="9fqEiez74HAiHmVb1B91-12" value="&lt;font style=&quot;font-size: 14px;&quot;&gt;&amp;lt;extend&amp;gt;&lt;/font&gt;" style="html=1;verticalAlign=bottom;endArrow=open;dashed=1;endSize=8;curved=0;rounded=0;entryX=1;entryY=0.5;entryDx=0;entryDy=0;exitX=0.015;exitY=0.61;exitDx=0;exitDy=0;exitPerimeter=0;" edge="1" parent="1" source="scgQ76pB7DkAtTEcPjEE-4" target="scgQ76pB7DkAtTEcPjEE-3">
          <mxGeometry relative="1" as="geometry">
            <mxPoint x="949" y="-196" as="sourcePoint" />
            <mxPoint x="848" y="-213" as="targetPoint" />
          </mxGeometry>
        </mxCell>
        <mxCell id="9fqEiez74HAiHmVb1B91-13" value="&lt;font style=&quot;font-size: 14px;&quot;&gt;&amp;lt;extend&amp;gt;&lt;/font&gt;" style="html=1;verticalAlign=bottom;endArrow=open;dashed=1;endSize=8;curved=0;rounded=0;entryX=1;entryY=1;entryDx=0;entryDy=0;exitX=0;exitY=0.5;exitDx=0;exitDy=0;" edge="1" parent="1" source="scgQ76pB7DkAtTEcPjEE-5" target="scgQ76pB7DkAtTEcPjEE-3">
          <mxGeometry relative="1" as="geometry">
            <mxPoint x="1010" y="-107" as="sourcePoint" />
            <mxPoint x="906" y="-88" as="targetPoint" />
          </mxGeometry>
        </mxCell>
        <mxCell id="9fqEiez74HAiHmVb1B91-21" value="&lt;font style=&quot;font-size: 14px;&quot;&gt;Vào kho chứa tháp&lt;/font&gt;" style="ellipse;whiteSpace=wrap;html=1;" vertex="1" parent="1">
          <mxGeometry x="379" y="304" width="120" height="80" as="geometry" />
        </mxCell>
        <mxCell id="9fqEiez74HAiHmVb1B91-22" value="&lt;font style=&quot;font-size: 14px;&quot;&gt;&amp;lt;include&amp;gt;&lt;/font&gt;" style="html=1;verticalAlign=bottom;endArrow=open;dashed=1;endSize=8;curved=0;rounded=0;entryX=1;entryY=0.5;entryDx=0;entryDy=0;exitX=0;exitY=0;exitDx=0;exitDy=0;" edge="1" source="9fqEiez74HAiHmVb1B91-23" target="9fqEiez74HAiHmVb1B91-21" parent="1">
          <mxGeometry relative="1" as="geometry">
            <mxPoint x="782" y="531" as="sourcePoint" />
            <mxPoint x="714" y="449" as="targetPoint" />
          </mxGeometry>
        </mxCell>
        <mxCell id="9fqEiez74HAiHmVb1B91-23" value="&lt;font style=&quot;font-size: 14px;&quot;&gt;Chọn tháp&lt;/font&gt;" style="ellipse;whiteSpace=wrap;html=1;" vertex="1" parent="1">
          <mxGeometry x="571" y="358" width="120" height="80" as="geometry" />
        </mxCell>
        <mxCell id="9fqEiez74HAiHmVb1B91-24" value="&lt;font style=&quot;font-size: 14px;&quot;&gt;&amp;lt;extend&amp;gt;&lt;/font&gt;" style="html=1;verticalAlign=bottom;endArrow=open;dashed=1;endSize=8;curved=0;rounded=0;entryX=0.5;entryY=0;entryDx=0;entryDy=0;exitX=0;exitY=0.5;exitDx=0;exitDy=0;" edge="1" source="9fqEiez74HAiHmVb1B91-29" target="9fqEiez74HAiHmVb1B91-23" parent="1">
          <mxGeometry relative="1" as="geometry">
            <mxPoint x="854" y="259" as="sourcePoint" />
            <mxPoint x="714" y="299" as="targetPoint" />
          </mxGeometry>
        </mxCell>
        <mxCell id="9fqEiez74HAiHmVb1B91-25" value="&lt;font style=&quot;font-size: 14px;&quot;&gt;&amp;lt;extend&amp;gt;&lt;/font&gt;" style="html=1;verticalAlign=bottom;endArrow=open;dashed=1;endSize=8;curved=0;rounded=0;entryX=1;entryY=0.5;entryDx=0;entryDy=0;exitX=0;exitY=0;exitDx=0;exitDy=0;" edge="1" source="9fqEiez74HAiHmVb1B91-28" target="9fqEiez74HAiHmVb1B91-23" parent="1">
          <mxGeometry relative="1" as="geometry">
            <mxPoint x="1092" y="571" as="sourcePoint" />
            <mxPoint x="694" y="429" as="targetPoint" />
          </mxGeometry>
        </mxCell>
        <mxCell id="9fqEiez74HAiHmVb1B91-26" value="&lt;font style=&quot;font-size: 14px;&quot;&gt;&amp;lt;extend&amp;gt;&lt;/font&gt;" style="html=1;verticalAlign=bottom;endArrow=open;dashed=1;endSize=8;curved=0;rounded=0;entryX=0.5;entryY=1;entryDx=0;entryDy=0;exitX=0;exitY=0;exitDx=0;exitDy=0;" edge="1" source="9fqEiez74HAiHmVb1B91-27" target="9fqEiez74HAiHmVb1B91-23" parent="1">
          <mxGeometry relative="1" as="geometry">
            <mxPoint x="904" y="469" as="sourcePoint" />
            <mxPoint x="714" y="449" as="targetPoint" />
          </mxGeometry>
        </mxCell>
        <mxCell id="9fqEiez74HAiHmVb1B91-27" value="&lt;font style=&quot;font-size: 14px;&quot;&gt;Tăng tốc độ bắn&lt;/font&gt;" style="ellipse;whiteSpace=wrap;html=1;" vertex="1" parent="1">
          <mxGeometry x="627" y="489" width="120" height="80" as="geometry" />
        </mxCell>
        <mxCell id="9fqEiez74HAiHmVb1B91-28" value="&lt;font style=&quot;font-size: 14px;&quot;&gt;Tăng phạm vi bắn&lt;/font&gt;" style="ellipse;whiteSpace=wrap;html=1;" vertex="1" parent="1">
          <mxGeometry x="785" y="370" width="120" height="80" as="geometry" />
        </mxCell>
        <mxCell id="9fqEiez74HAiHmVb1B91-29" value="&lt;span style=&quot;font-size: 14px;&quot;&gt;Tăng sát thương&lt;/span&gt;" style="ellipse;whiteSpace=wrap;html=1;" vertex="1" parent="1">
          <mxGeometry x="707" y="236" width="120" height="80" as="geometry" />
        </mxCell>
        <mxCell id="9fqEiez74HAiHmVb1B91-30" value="" style="endArrow=none;html=1;rounded=0;entryX=0;entryY=0.5;entryDx=0;entryDy=0;" edge="1" target="9fqEiez74HAiHmVb1B91-21" parent="1">
          <mxGeometry width="50" height="50" relative="1" as="geometry">
            <mxPoint x="344" y="349" as="sourcePoint" />
            <mxPoint x="834" y="409" as="targetPoint" />
          </mxGeometry>
        </mxCell>
        <mxCell id="9fqEiez74HAiHmVb1B91-31" value="Player" style="shape=umlActor;verticalLabelPosition=bottom;verticalAlign=top;html=1;outlineConnect=0;" vertex="1" parent="1">
          <mxGeometry x="289" y="319" width="30" height="60" as="geometry" />
        </mxCell>
        <mxCell id="9fqEiez74HAiHmVb1B91-32" value="Vào cửa hàng" style="ellipse;whiteSpace=wrap;html=1;" vertex="1" parent="1">
          <mxGeometry x="543" y="680" width="120" height="80" as="geometry" />
        </mxCell>
        <mxCell id="9fqEiez74HAiHmVb1B91-33" value="Mua them vang" style="ellipse;whiteSpace=wrap;html=1;" vertex="1" parent="1">
          <mxGeometry x="754" y="653" width="120" height="80" as="geometry" />
        </mxCell>
        <mxCell id="9fqEiez74HAiHmVb1B91-34" value="&amp;lt;extend&amp;gt;" style="html=1;verticalAlign=bottom;endArrow=open;dashed=1;endSize=8;curved=0;rounded=0;exitX=0;exitY=0.5;exitDx=0;exitDy=0;entryX=1;entryY=0.5;entryDx=0;entryDy=0;" edge="1" parent="1" source="9fqEiez74HAiHmVb1B91-33" target="9fqEiez74HAiHmVb1B91-32">
          <mxGeometry relative="1" as="geometry">
            <mxPoint x="970" y="968" as="sourcePoint" />
            <mxPoint x="922" y="1056" as="targetPoint" />
          </mxGeometry>
        </mxCell>
        <mxCell id="9fqEiez74HAiHmVb1B91-35" value="Actor" style="shape=umlActor;verticalLabelPosition=bottom;verticalAlign=top;html=1;outlineConnect=0;" vertex="1" parent="1">
          <mxGeometry x="442" y="666" width="30" height="60" as="geometry" />
        </mxCell>
        <mxCell id="9fqEiez74HAiHmVb1B91-36" value="" style="endArrow=none;html=1;rounded=0;entryX=0;entryY=0.5;entryDx=0;entryDy=0;" edge="1" parent="1" target="9fqEiez74HAiHmVb1B91-32">
          <mxGeometry width="50" height="50" relative="1" as="geometry">
            <mxPoint x="482" y="716" as="sourcePoint" />
            <mxPoint x="722" y="786" as="targetPoint" />
          </mxGeometry>
        </mxCell>
      </root>
    </mxGraphModel>
  </diagram>
</mxfile>
